<mxfile host="app.diagrams.net" modified="2024-04-10T16:38:42.458Z" agent="Mozilla/5.0 (Windows NT 10.0; Win64; x64) AppleWebKit/537.36 (KHTML, like Gecko) Chrome/122.0.0.0 Safari/537.36 Edg/122.0.0.0" etag="lSGZAIiSrxv7SIZacteN" version="24.2.3" type="github">
  <diagram name="Page-1" id="A8W0ZlJkRZm1EOQpJBz_">
    <mxGraphModel dx="1116" dy="733" grid="1" gridSize="10" guides="1" tooltips="1" connect="1" arrows="1" fold="1" page="1" pageScale="1" pageWidth="850" pageHeight="1100" math="0" shadow="0">
      <root>
        <mxCell id="0" />
        <mxCell id="1" parent="0" />
        <mxCell id="siB9gwOaP5ev9PkQdLU9-84" value="Multi-Logical Device (MLD)" style="text;html=1;align=center;verticalAlign=middle;resizable=0;points=[];autosize=1;strokeColor=none;fillColor=none;fontFamily=Helvetica;fontSize=13;fontColor=default;labelBackgroundColor=default;" parent="1" vertex="1">
          <mxGeometry x="190.00000000000006" y="448.53000000000003" width="180" height="30" as="geometry" />
        </mxCell>
        <mxCell id="siB9gwOaP5ev9PkQdLU9-89" value="&lt;div style=&quot;&quot;&gt;&lt;br&gt;&lt;/div&gt;" style="rounded=1;whiteSpace=wrap;html=1;strokeWidth=1;fontSize=10;rotation=90;align=right;verticalAlign=middle;horizontal=0;labelPosition=left;verticalLabelPosition=middle;fillColor=#d5e8d4;strokeColor=#82b366;perimeterSpacing=0;imageWidth=24;arcSize=6;" parent="1" vertex="1">
          <mxGeometry x="241.99999999999994" y="365.5300000000001" width="86" height="80" as="geometry" />
        </mxCell>
        <mxCell id="siB9gwOaP5ev9PkQdLU9-95" value="" style="rounded=0;whiteSpace=wrap;html=1;fillColor=#60a917;strokeColor=none;shadow=0;fontColor=#ffffff;textShadow=0;" parent="1" vertex="1">
          <mxGeometry x="249.99999999999994" y="386.57" width="70" height="10" as="geometry" />
        </mxCell>
        <mxCell id="siB9gwOaP5ev9PkQdLU9-96" value="" style="rounded=0;whiteSpace=wrap;html=1;fillColor=#60a917;strokeColor=none;shadow=0;fontColor=#ffffff;textShadow=0;" parent="1" vertex="1">
          <mxGeometry x="249.99999999999994" y="397.57" width="70" height="10" as="geometry" />
        </mxCell>
        <mxCell id="siB9gwOaP5ev9PkQdLU9-97" value="" style="rounded=0;whiteSpace=wrap;html=1;fillColor=#60a917;strokeColor=none;shadow=0;fontColor=#ffffff;textShadow=0;" parent="1" vertex="1">
          <mxGeometry x="249.99999999999994" y="408.57" width="70" height="10" as="geometry" />
        </mxCell>
        <mxCell id="siB9gwOaP5ev9PkQdLU9-98" value="" style="rounded=0;whiteSpace=wrap;html=1;fillColor=#60a917;strokeColor=none;shadow=0;textShadow=0;fontColor=#ffffff;" parent="1" vertex="1">
          <mxGeometry x="249.99999999999994" y="419.57" width="70" height="10" as="geometry" />
        </mxCell>
        <mxCell id="siB9gwOaP5ev9PkQdLU9-99" value="" style="rounded=0;whiteSpace=wrap;html=1;fillColor=#60a917;strokeColor=none;shadow=0;fontColor=#ffffff;textShadow=0;" parent="1" vertex="1">
          <mxGeometry x="249.99999999999994" y="430.5694117647059" width="70" height="10" as="geometry" />
        </mxCell>
        <mxCell id="9nzjCH3Tve30hIbmqved-3" value="&lt;font style=&quot;font-size: 13px;&quot;&gt;CXL Type 2&lt;/font&gt;" style="text;html=1;align=center;verticalAlign=middle;resizable=0;points=[];autosize=1;strokeColor=none;fillColor=none;labelBackgroundColor=none;fontColor=#000000;fontSize=9;" parent="1" vertex="1">
          <mxGeometry x="240" y="360" width="90" height="30" as="geometry" />
        </mxCell>
        <mxCell id="GWw4KoO9vn4Ngn3BBy9A-2" value="&lt;div style=&quot;&quot;&gt;&lt;br&gt;&lt;/div&gt;" style="rounded=1;whiteSpace=wrap;html=1;strokeWidth=1;fontSize=10;rotation=90;align=right;verticalAlign=middle;horizontal=0;labelPosition=left;verticalLabelPosition=middle;fillColor=#d5e8d4;strokeColor=#82b366;perimeterSpacing=0;imageWidth=24;arcSize=6;" parent="1" vertex="1">
          <mxGeometry x="363" y="365.5300000000001" width="86" height="80" as="geometry" />
        </mxCell>
        <mxCell id="GWw4KoO9vn4Ngn3BBy9A-3" value="" style="rounded=0;whiteSpace=wrap;html=1;fillColor=#60a917;strokeColor=none;shadow=0;fontColor=#ffffff;textShadow=0;" parent="1" vertex="1">
          <mxGeometry x="370.99999999999994" y="386.57" width="70" height="10" as="geometry" />
        </mxCell>
        <mxCell id="GWw4KoO9vn4Ngn3BBy9A-4" value="" style="rounded=0;whiteSpace=wrap;html=1;fillColor=#60a917;strokeColor=none;shadow=0;fontColor=#ffffff;textShadow=0;" parent="1" vertex="1">
          <mxGeometry x="370.99999999999994" y="397.57" width="70" height="10" as="geometry" />
        </mxCell>
        <mxCell id="GWw4KoO9vn4Ngn3BBy9A-5" value="" style="rounded=0;whiteSpace=wrap;html=1;fillColor=#60a917;strokeColor=none;shadow=0;fontColor=#ffffff;textShadow=0;" parent="1" vertex="1">
          <mxGeometry x="370.99999999999994" y="408.57" width="70" height="10" as="geometry" />
        </mxCell>
        <mxCell id="GWw4KoO9vn4Ngn3BBy9A-6" value="" style="rounded=0;whiteSpace=wrap;html=1;fillColor=#6a00ff;strokeColor=none;shadow=0;textShadow=0;fontColor=#ffffff;" parent="1" vertex="1">
          <mxGeometry x="370.99999999999994" y="419.57" width="70" height="10" as="geometry" />
        </mxCell>
        <mxCell id="GWw4KoO9vn4Ngn3BBy9A-7" value="" style="rounded=0;whiteSpace=wrap;html=1;fillColor=#6a00ff;strokeColor=none;shadow=0;fontColor=#ffffff;textShadow=0;" parent="1" vertex="1">
          <mxGeometry x="370.99999999999994" y="430.5694117647059" width="70" height="10" as="geometry" />
        </mxCell>
        <mxCell id="GWw4KoO9vn4Ngn3BBy9A-8" value="&lt;font style=&quot;font-size: 13px;&quot;&gt;CXL Type 2&lt;/font&gt;" style="text;html=1;align=center;verticalAlign=middle;resizable=0;points=[];autosize=1;strokeColor=none;fillColor=none;labelBackgroundColor=none;fontColor=#000000;fontSize=9;" parent="1" vertex="1">
          <mxGeometry x="361" y="360" width="90" height="30" as="geometry" />
        </mxCell>
        <mxCell id="GWw4KoO9vn4Ngn3BBy9A-9" value="MLD" style="text;html=1;align=center;verticalAlign=middle;resizable=0;points=[];autosize=1;strokeColor=none;fillColor=none;fontFamily=Helvetica;fontSize=13;fontColor=default;labelBackgroundColor=default;" parent="1" vertex="1">
          <mxGeometry x="381.00000000000006" y="448.53000000000003" width="50" height="30" as="geometry" />
        </mxCell>
        <mxCell id="GWw4KoO9vn4Ngn3BBy9A-10" value="&lt;div style=&quot;&quot;&gt;&lt;br&gt;&lt;/div&gt;" style="rounded=1;whiteSpace=wrap;html=1;strokeWidth=1;fontSize=10;rotation=90;align=right;verticalAlign=middle;horizontal=0;labelPosition=left;verticalLabelPosition=middle;fillColor=#d5e8d4;strokeColor=#82b366;perimeterSpacing=0;imageWidth=24;arcSize=6;" parent="1" vertex="1">
          <mxGeometry x="483" y="365.5300000000001" width="86" height="80" as="geometry" />
        </mxCell>
        <mxCell id="GWw4KoO9vn4Ngn3BBy9A-11" value="" style="rounded=0;whiteSpace=wrap;html=1;fillColor=#60a917;strokeColor=none;shadow=0;fontColor=#ffffff;textShadow=0;" parent="1" vertex="1">
          <mxGeometry x="491" y="386.57" width="70" height="10" as="geometry" />
        </mxCell>
        <mxCell id="GWw4KoO9vn4Ngn3BBy9A-12" value="" style="rounded=0;whiteSpace=wrap;html=1;fillColor=#6a00ff;strokeColor=none;shadow=0;fontColor=#ffffff;textShadow=0;" parent="1" vertex="1">
          <mxGeometry x="491" y="397.57" width="70" height="10" as="geometry" />
        </mxCell>
        <mxCell id="GWw4KoO9vn4Ngn3BBy9A-13" value="" style="rounded=0;whiteSpace=wrap;html=1;fillColor=#60a917;strokeColor=none;shadow=0;fontColor=#ffffff;textShadow=0;" parent="1" vertex="1">
          <mxGeometry x="491" y="408.57" width="70" height="10" as="geometry" />
        </mxCell>
        <mxCell id="GWw4KoO9vn4Ngn3BBy9A-14" value="" style="rounded=0;whiteSpace=wrap;html=1;fillColor=#a20025;strokeColor=none;shadow=0;textShadow=0;fontColor=#ffffff;" parent="1" vertex="1">
          <mxGeometry x="491" y="419.57" width="70" height="10" as="geometry" />
        </mxCell>
        <mxCell id="GWw4KoO9vn4Ngn3BBy9A-15" value="" style="rounded=0;whiteSpace=wrap;html=1;fillColor=#fff2cc;strokeColor=#d6b656;shadow=0;textShadow=0;strokeWidth=0.25;glass=0;fillStyle=auto;gradientColor=none;" parent="1" vertex="1">
          <mxGeometry x="491" y="431.57" width="70" height="8" as="geometry" />
        </mxCell>
        <mxCell id="GWw4KoO9vn4Ngn3BBy9A-16" value="&lt;font style=&quot;font-size: 13px;&quot;&gt;CXL Type 2&lt;/font&gt;" style="text;html=1;align=center;verticalAlign=middle;resizable=0;points=[];autosize=1;strokeColor=none;fillColor=none;labelBackgroundColor=none;fontColor=#000000;fontSize=9;" parent="1" vertex="1">
          <mxGeometry x="481" y="360" width="90" height="30" as="geometry" />
        </mxCell>
        <mxCell id="GWw4KoO9vn4Ngn3BBy9A-17" value="MLD" style="text;html=1;align=center;verticalAlign=middle;resizable=0;points=[];autosize=1;strokeColor=none;fillColor=none;fontFamily=Helvetica;fontSize=13;fontColor=default;labelBackgroundColor=default;" parent="1" vertex="1">
          <mxGeometry x="501" y="448.53000000000003" width="50" height="30" as="geometry" />
        </mxCell>
        <mxCell id="GWw4KoO9vn4Ngn3BBy9A-18" value="&lt;div style=&quot;&quot;&gt;&lt;br&gt;&lt;/div&gt;" style="rounded=1;whiteSpace=wrap;html=1;strokeWidth=1;fontSize=10;rotation=90;align=right;verticalAlign=middle;horizontal=0;labelPosition=left;verticalLabelPosition=middle;fillColor=#d5e8d4;strokeColor=#82b366;perimeterSpacing=0;imageWidth=24;arcSize=6;" parent="1" vertex="1">
          <mxGeometry x="600.85" y="365.5300000000001" width="86" height="80" as="geometry" />
        </mxCell>
        <mxCell id="GWw4KoO9vn4Ngn3BBy9A-19" value="" style="rounded=0;whiteSpace=wrap;html=1;fillColor=#60a917;strokeColor=none;shadow=0;fontColor=#ffffff;textShadow=0;" parent="1" vertex="1">
          <mxGeometry x="608.85" y="386.57" width="70" height="10" as="geometry" />
        </mxCell>
        <mxCell id="GWw4KoO9vn4Ngn3BBy9A-20" value="" style="rounded=0;whiteSpace=wrap;html=1;fillColor=#a20025;strokeColor=none;shadow=0;fontColor=#ffffff;textShadow=0;" parent="1" vertex="1">
          <mxGeometry x="608.85" y="397.57" width="70" height="10" as="geometry" />
        </mxCell>
        <mxCell id="GWw4KoO9vn4Ngn3BBy9A-21" value="" style="rounded=0;whiteSpace=wrap;html=1;fillColor=#a20025;strokeColor=none;shadow=0;fontColor=#ffffff;textShadow=0;" parent="1" vertex="1">
          <mxGeometry x="608.85" y="408.57" width="70" height="10" as="geometry" />
        </mxCell>
        <mxCell id="GWw4KoO9vn4Ngn3BBy9A-22" value="" style="rounded=0;whiteSpace=wrap;html=1;fillColor=#fff2cc;strokeColor=#d6b656;shadow=0;textShadow=0;glass=0;fillStyle=auto;strokeWidth=0.25;gradientColor=none;" parent="1" vertex="1">
          <mxGeometry x="608.85" y="420.57" width="70" height="8" as="geometry" />
        </mxCell>
        <mxCell id="GWw4KoO9vn4Ngn3BBy9A-23" value="" style="rounded=0;whiteSpace=wrap;html=1;fillColor=#fff2cc;strokeColor=#d6b656;shadow=0;textShadow=0;glass=0;fillStyle=auto;strokeWidth=0.25;gradientColor=none;" parent="1" vertex="1">
          <mxGeometry x="608.85" y="430.57" width="70" height="8" as="geometry" />
        </mxCell>
        <mxCell id="GWw4KoO9vn4Ngn3BBy9A-24" value="&lt;font style=&quot;font-size: 13px;&quot;&gt;CXL Type 2&lt;/font&gt;" style="text;html=1;align=center;verticalAlign=middle;resizable=0;points=[];autosize=1;strokeColor=none;fillColor=none;labelBackgroundColor=none;fontColor=#000000;fontSize=9;" parent="1" vertex="1">
          <mxGeometry x="598.85" y="360" width="90" height="30" as="geometry" />
        </mxCell>
        <mxCell id="GWw4KoO9vn4Ngn3BBy9A-25" value="MLD" style="text;html=1;align=center;verticalAlign=middle;resizable=0;points=[];autosize=1;strokeColor=none;fillColor=none;fontFamily=Helvetica;fontSize=13;fontColor=default;labelBackgroundColor=default;" parent="1" vertex="1">
          <mxGeometry x="618.85" y="448.53000000000003" width="50" height="30" as="geometry" />
        </mxCell>
        <mxCell id="uq200lhuQBNym-ZLv9r4-11" value="" style="group;fillColor=default;gradientColor=none;strokeColor=none;" parent="1" connectable="0" vertex="1">
          <mxGeometry x="187.50105263157894" y="100" width="84.99789473684211" height="85" as="geometry" />
        </mxCell>
        <mxCell id="uq200lhuQBNym-ZLv9r4-2" value="" style="rounded=1;whiteSpace=wrap;html=1;arcSize=7;fillColor=#008a00;strokeColor=#005700;fontColor=#ffffff;" parent="uq200lhuQBNym-ZLv9r4-11" vertex="1">
          <mxGeometry width="84.99789473684211" height="85" as="geometry" />
        </mxCell>
        <mxCell id="uq200lhuQBNym-ZLv9r4-3" value="&lt;font style=&quot;font-size: 20px;&quot;&gt;CPU0&lt;/font&gt;" style="rounded=1;whiteSpace=wrap;html=1;fillColor=#d5e8d4;strokeColor=#82b366;shadow=0;" parent="uq200lhuQBNym-ZLv9r4-11" vertex="1">
          <mxGeometry x="7.083157894736843" y="7.083333333333334" width="70.83157894736843" height="70.83333333333334" as="geometry" />
        </mxCell>
        <mxCell id="siB9gwOaP5ev9PkQdLU9-107" value="" style="group;fillColor=default;gradientColor=none;strokeColor=none;" parent="1" connectable="0" vertex="1">
          <mxGeometry x="340.93105263157895" y="100" width="84.99789473684211" height="85" as="geometry" />
        </mxCell>
        <mxCell id="siB9gwOaP5ev9PkQdLU9-108" value="" style="rounded=1;whiteSpace=wrap;html=1;arcSize=7;fillColor=#008a00;strokeColor=#005700;fontColor=#ffffff;" parent="siB9gwOaP5ev9PkQdLU9-107" vertex="1">
          <mxGeometry width="84.99789473684211" height="85" as="geometry" />
        </mxCell>
        <mxCell id="siB9gwOaP5ev9PkQdLU9-109" value="&lt;font style=&quot;font-size: 20px;&quot;&gt;CPU1&lt;/font&gt;" style="rounded=1;whiteSpace=wrap;html=1;fillColor=#d5e8d4;strokeColor=#82b366;shadow=0;" parent="siB9gwOaP5ev9PkQdLU9-107" vertex="1">
          <mxGeometry x="7.083157894736843" y="7.083333333333334" width="70.83157894736843" height="70.83333333333334" as="geometry" />
        </mxCell>
        <mxCell id="9nzjCH3Tve30hIbmqved-78" value="" style="group;fillColor=default;gradientColor=none;strokeColor=none;" parent="1" connectable="0" vertex="1">
          <mxGeometry x="497.79105263157896" y="100" width="84.99789473684211" height="85" as="geometry" />
        </mxCell>
        <mxCell id="9nzjCH3Tve30hIbmqved-79" value="" style="rounded=1;whiteSpace=wrap;html=1;arcSize=7;fillColor=#6a00ff;strokeColor=#3700CC;fontColor=#ffffff;" parent="9nzjCH3Tve30hIbmqved-78" vertex="1">
          <mxGeometry width="84.99789473684211" height="85" as="geometry" />
        </mxCell>
        <mxCell id="9nzjCH3Tve30hIbmqved-80" value="&lt;font style=&quot;font-size: 20px;&quot;&gt;CPU2&lt;/font&gt;" style="rounded=1;whiteSpace=wrap;html=1;fillColor=#e1d5e7;strokeColor=#9673a6;shadow=0;" parent="9nzjCH3Tve30hIbmqved-78" vertex="1">
          <mxGeometry x="7.083157894736843" y="7.083333333333334" width="70.83157894736843" height="70.83333333333334" as="geometry" />
        </mxCell>
        <mxCell id="9nzjCH3Tve30hIbmqved-99" value="" style="group;fillColor=default;gradientColor=none;strokeColor=none;" parent="1" connectable="0" vertex="1">
          <mxGeometry x="647.791052631579" y="100" width="84.99789473684211" height="85" as="geometry" />
        </mxCell>
        <mxCell id="9nzjCH3Tve30hIbmqved-100" value="" style="rounded=1;whiteSpace=wrap;html=1;arcSize=7;fillColor=#a0522d;strokeColor=#6D1F00;fontColor=#ffffff;" parent="9nzjCH3Tve30hIbmqved-99" vertex="1">
          <mxGeometry width="84.99789473684211" height="85" as="geometry" />
        </mxCell>
        <mxCell id="9nzjCH3Tve30hIbmqved-101" value="&lt;font style=&quot;font-size: 20px;&quot;&gt;CPU3&lt;/font&gt;" style="rounded=1;whiteSpace=wrap;html=1;fillColor=#ffcc99;strokeColor=#36393d;shadow=0;" parent="9nzjCH3Tve30hIbmqved-99" vertex="1">
          <mxGeometry x="7.083157894736843" y="7.083333333333334" width="70.83157894736843" height="70.83333333333334" as="geometry" />
        </mxCell>
        <mxCell id="RVAUaGwnfIUGjfLfYw1A-189" value="DRAM" style="rounded=0;whiteSpace=wrap;html=1;fillColor=#fff2cc;strokeColor=#d6b656;shadow=0;textShadow=0;strokeWidth=1;rotation=0;glass=0;fillStyle=auto;gradientColor=none;fontSize=14;" parent="1" vertex="1">
          <mxGeometry x="195" y="70" width="70" height="20" as="geometry" />
        </mxCell>
        <mxCell id="GYtMgobfo3TFQl3vnP9n-1" value="" style="group;fontSize=17;" parent="1" vertex="1" connectable="0">
          <mxGeometry x="250" y="260" width="430" height="40" as="geometry" />
        </mxCell>
        <mxCell id="GYtMgobfo3TFQl3vnP9n-2" value="&lt;font style=&quot;font-size: 20px;&quot;&gt;CXL Switch&lt;/font&gt;" style="rounded=1;whiteSpace=wrap;html=1;fillColor=#d5e8d4;strokeColor=#82b366;" parent="GYtMgobfo3TFQl3vnP9n-1" vertex="1">
          <mxGeometry width="430" height="40" as="geometry" />
        </mxCell>
        <mxCell id="GYtMgobfo3TFQl3vnP9n-3" value="" style="rounded=0;whiteSpace=wrap;html=1;strokeColor=none;" parent="GYtMgobfo3TFQl3vnP9n-1" vertex="1">
          <mxGeometry x="315.3333333333333" y="16" width="11.466666666666665" height="8" as="geometry" />
        </mxCell>
        <mxCell id="GYtMgobfo3TFQl3vnP9n-4" value="" style="rounded=0;whiteSpace=wrap;html=1;strokeColor=none;" parent="GYtMgobfo3TFQl3vnP9n-1" vertex="1">
          <mxGeometry x="334.4444444444444" y="16" width="11.466666666666665" height="8" as="geometry" />
        </mxCell>
        <mxCell id="GYtMgobfo3TFQl3vnP9n-5" value="" style="rounded=0;whiteSpace=wrap;html=1;strokeColor=none;" parent="GYtMgobfo3TFQl3vnP9n-1" vertex="1">
          <mxGeometry x="353.55555555555554" y="16" width="11.466666666666665" height="8" as="geometry" />
        </mxCell>
        <mxCell id="GYtMgobfo3TFQl3vnP9n-6" value="" style="rounded=0;whiteSpace=wrap;html=1;strokeColor=none;" parent="GYtMgobfo3TFQl3vnP9n-1" vertex="1">
          <mxGeometry x="372.66666666666663" y="16" width="11.466666666666665" height="8" as="geometry" />
        </mxCell>
        <mxCell id="GYtMgobfo3TFQl3vnP9n-7" value="" style="rounded=0;whiteSpace=wrap;html=1;strokeColor=none;" parent="GYtMgobfo3TFQl3vnP9n-1" vertex="1">
          <mxGeometry x="391.7777777777778" y="16" width="11.466666666666665" height="8" as="geometry" />
        </mxCell>
        <mxCell id="GYtMgobfo3TFQl3vnP9n-21" style="edgeStyle=orthogonalEdgeStyle;rounded=0;orthogonalLoop=1;jettySize=auto;html=1;entryX=0.082;entryY=1.064;entryDx=0;entryDy=0;entryPerimeter=0;" parent="1" source="9nzjCH3Tve30hIbmqved-3" target="GYtMgobfo3TFQl3vnP9n-2" edge="1">
          <mxGeometry relative="1" as="geometry" />
        </mxCell>
        <mxCell id="GYtMgobfo3TFQl3vnP9n-22" style="edgeStyle=orthogonalEdgeStyle;rounded=0;orthogonalLoop=1;jettySize=auto;html=1;entryX=0.364;entryY=1.021;entryDx=0;entryDy=0;entryPerimeter=0;" parent="1" source="GWw4KoO9vn4Ngn3BBy9A-8" target="GYtMgobfo3TFQl3vnP9n-2" edge="1">
          <mxGeometry relative="1" as="geometry" />
        </mxCell>
        <mxCell id="GYtMgobfo3TFQl3vnP9n-23" style="edgeStyle=orthogonalEdgeStyle;rounded=0;orthogonalLoop=1;jettySize=auto;html=1;entryX=0.642;entryY=1.007;entryDx=0;entryDy=0;entryPerimeter=0;" parent="1" source="GWw4KoO9vn4Ngn3BBy9A-16" target="GYtMgobfo3TFQl3vnP9n-2" edge="1">
          <mxGeometry relative="1" as="geometry" />
        </mxCell>
        <mxCell id="GYtMgobfo3TFQl3vnP9n-24" style="edgeStyle=orthogonalEdgeStyle;rounded=0;orthogonalLoop=1;jettySize=auto;html=1;entryX=0.917;entryY=1.007;entryDx=0;entryDy=0;entryPerimeter=0;" parent="1" source="GWw4KoO9vn4Ngn3BBy9A-24" target="GYtMgobfo3TFQl3vnP9n-2" edge="1">
          <mxGeometry relative="1" as="geometry" />
        </mxCell>
        <mxCell id="GYtMgobfo3TFQl3vnP9n-25" style="edgeStyle=orthogonalEdgeStyle;rounded=0;orthogonalLoop=1;jettySize=auto;html=1;entryX=0.081;entryY=0.064;entryDx=0;entryDy=0;entryPerimeter=0;" parent="1" source="uq200lhuQBNym-ZLv9r4-2" target="GYtMgobfo3TFQl3vnP9n-2" edge="1">
          <mxGeometry relative="1" as="geometry" />
        </mxCell>
        <mxCell id="GYtMgobfo3TFQl3vnP9n-26" style="edgeStyle=orthogonalEdgeStyle;rounded=0;orthogonalLoop=1;jettySize=auto;html=1;entryX=0.312;entryY=-0.007;entryDx=0;entryDy=0;entryPerimeter=0;" parent="1" source="siB9gwOaP5ev9PkQdLU9-108" target="GYtMgobfo3TFQl3vnP9n-2" edge="1">
          <mxGeometry relative="1" as="geometry" />
        </mxCell>
        <mxCell id="GYtMgobfo3TFQl3vnP9n-27" style="edgeStyle=orthogonalEdgeStyle;rounded=0;orthogonalLoop=1;jettySize=auto;html=1;entryX=0.676;entryY=-0.021;entryDx=0;entryDy=0;entryPerimeter=0;" parent="1" source="9nzjCH3Tve30hIbmqved-79" target="GYtMgobfo3TFQl3vnP9n-2" edge="1">
          <mxGeometry relative="1" as="geometry" />
        </mxCell>
        <mxCell id="GYtMgobfo3TFQl3vnP9n-28" style="edgeStyle=orthogonalEdgeStyle;rounded=0;orthogonalLoop=1;jettySize=auto;html=1;entryX=0.917;entryY=0.021;entryDx=0;entryDy=0;entryPerimeter=0;" parent="1" source="9nzjCH3Tve30hIbmqved-100" target="GYtMgobfo3TFQl3vnP9n-2" edge="1">
          <mxGeometry relative="1" as="geometry" />
        </mxCell>
        <mxCell id="NFltGN96kKvv2NQad8eB-1" value="DRAM" style="rounded=0;whiteSpace=wrap;html=1;fillColor=#fff2cc;strokeColor=#d6b656;shadow=0;textShadow=0;strokeWidth=1;rotation=0;glass=0;fillStyle=auto;gradientColor=none;fontSize=14;" parent="1" vertex="1">
          <mxGeometry x="350" y="70" width="70" height="20" as="geometry" />
        </mxCell>
        <mxCell id="NFltGN96kKvv2NQad8eB-2" value="DRAM" style="rounded=0;whiteSpace=wrap;html=1;fillColor=#fff2cc;strokeColor=#d6b656;shadow=0;textShadow=0;strokeWidth=1;rotation=0;glass=0;fillStyle=auto;gradientColor=none;fontSize=14;" parent="1" vertex="1">
          <mxGeometry x="505.29" y="70" width="70" height="20" as="geometry" />
        </mxCell>
        <mxCell id="NFltGN96kKvv2NQad8eB-3" value="DRAM" style="rounded=0;whiteSpace=wrap;html=1;fillColor=#fff2cc;strokeColor=#d6b656;shadow=0;textShadow=0;strokeWidth=1;rotation=0;glass=0;fillStyle=auto;gradientColor=none;fontSize=14;" parent="1" vertex="1">
          <mxGeometry x="655.29" y="70" width="70" height="20" as="geometry" />
        </mxCell>
        <mxCell id="NPYiJep_X1tEFV3kO65m-3" value="" style="group" vertex="1" connectable="0" parent="1">
          <mxGeometry x="30" y="380" width="210" height="30" as="geometry" />
        </mxCell>
        <mxCell id="NPYiJep_X1tEFV3kO65m-1" value="" style="rounded=0;whiteSpace=wrap;html=1;fillColor=#60a917;strokeColor=none;shadow=0;fontColor=#ffffff;textShadow=0;" vertex="1" parent="NPYiJep_X1tEFV3kO65m-3">
          <mxGeometry y="10" width="30" height="10" as="geometry" />
        </mxCell>
        <mxCell id="NPYiJep_X1tEFV3kO65m-2" value="&lt;font style=&quot;font-size: 13px;&quot;&gt;Shared by CPU0 and&amp;nbsp;&lt;/font&gt;&lt;span style=&quot;font-size: 13px;&quot;&gt;CPU1&lt;/span&gt;" style="text;html=1;align=center;verticalAlign=middle;resizable=0;points=[];autosize=1;strokeColor=none;fillColor=none;labelBackgroundColor=none;fontColor=#000000;fontSize=13;" vertex="1" parent="NPYiJep_X1tEFV3kO65m-3">
          <mxGeometry x="30" width="180" height="30" as="geometry" />
        </mxCell>
      </root>
    </mxGraphModel>
  </diagram>
</mxfile>
